<svg xmlns="http://www.w3.org/2000/svg" width="1160" height="620" viewBox="0 0 1160 620" role="img" aria-labelledby="title desc">
  <title id="title">research-paper-notes candidate list example</title>
  <desc id="desc">A mock screenshot showing the candidate paper confirmation table produced before full note generation.</desc>
  <rect width="1160" height="620" rx="18" fill="#f7fafc"/>
  <rect x="32" y="32" width="1096" height="556" rx="14" fill="#ffffff" stroke="#d8e2ea"/>
  <text x="70" y="88" font-family="Inter, Arial, sans-serif" font-size="30" font-weight="700" fill="#173b4a">Candidate Paper List</text>
  <text x="70" y="124" font-family="Inter, Arial, sans-serif" font-size="17" fill="#61727d">Confirm or edit this list before full Markdown notes are generated.</text>
  <rect x="70" y="158" width="1020" height="48" rx="8" fill="#eaf2f6"/>
  <text x="92" y="188" font-family="Inter, Arial, sans-serif" font-size="15" font-weight="700" fill="#173b4a">ID</text>
  <text x="150" y="188" font-family="Inter, Arial, sans-serif" font-size="15" font-weight="700" fill="#173b4a">Paper</text>
  <text x="496" y="188" font-family="Inter, Arial, sans-serif" font-size="15" font-weight="700" fill="#173b4a">Venue / Year</text>
  <text x="662" y="188" font-family="Inter, Arial, sans-serif" font-size="15" font-weight="700" fill="#173b4a">Category</text>
  <text x="836" y="188" font-family="Inter, Arial, sans-serif" font-size="15" font-weight="700" fill="#173b4a">Why Include</text>
  <g font-family="Inter, Arial, sans-serif" font-size="15" fill="#263238">
    <rect x="70" y="214" width="1020" height="58" fill="#ffffff" stroke="#d8e2ea"/>
    <text x="92" y="249">01</text>
    <text x="150" y="241">A Dynamic Benchmark for</text>
    <text x="150" y="261">Time-Aware Fact Checking</text>
    <text x="496" y="249">ACL 2026</text>
    <text x="662" y="249">Dynamic evidence</text>
    <text x="836" y="241">Tests whether models</text>
    <text x="836" y="261">overuse stale evidence.</text>
    <rect x="70" y="272" width="1020" height="58" fill="#fbfdfe" stroke="#d8e2ea"/>
    <text x="92" y="307">02</text>
    <text x="150" y="299">Attribution Benchmark for</text>
    <text x="150" y="319">Multimodal Fake News</text>
    <text x="496" y="307">AAAI 2025</text>
    <text x="662" y="307">Attribution</text>
    <text x="836" y="299">Moves beyond labels to</text>
    <text x="836" y="319">where the falsehood is.</text>
    <rect x="70" y="330" width="1020" height="58" fill="#ffffff" stroke="#d8e2ea"/>
    <text x="92" y="365">03</text>
    <text x="150" y="357">Tool-Augmented Agent for</text>
    <text x="150" y="377">Misinformation Detection</text>
    <text x="496" y="365">2025</text>
    <text x="662" y="365">Agent workflow</text>
    <text x="836" y="357">Frames detection as</text>
    <text x="836" y="377">tool-supported inquiry.</text>
    <rect x="70" y="388" width="1020" height="58" fill="#fbfdfe" stroke="#d8e2ea"/>
    <text x="92" y="423">04</text>
    <text x="150" y="415">Shortcut Learning in</text>
    <text x="150" y="435">Misinformation Detection</text>
    <text x="496" y="423">arXiv 2025</text>
    <text x="662" y="423">Robustness</text>
    <text x="836" y="415">Diagnoses spurious</text>
    <text x="836" y="435">signals and style bias.</text>
  </g>
  <rect x="70" y="486" width="310" height="52" rx="10" fill="#173b4a"/>
  <text x="96" y="519" font-family="Inter, Arial, sans-serif" font-size="17" font-weight="700" fill="#ffffff">Wait for user confirmation</text>
  <text x="410" y="518" font-family="Inter, Arial, sans-serif" font-size="16" fill="#61727d">Then download, organize, and generate the full note library.</text>
</svg>
